<svg width="19" height="19" viewBox="0 0 19 19" fill="none" xmlns="http://www.w3.org/2000/svg">
<path d="M0 6.40207C0 4.67718 -5.45128e-08 3.81565 0.53594 3.27971C1.07188 2.74377 1.93341 2.74377 3.65829 2.74377H14.6332C16.3581 2.74377 17.2196 2.74377 17.7555 3.27971C18.2915 3.81565 18.2915 4.67718 18.2915 6.40207C18.2915 6.83283 18.2915 7.04867 18.1579 7.18311C18.0235 7.31664 17.8067 7.31664 17.3769 7.31664H0.914573C0.483809 7.31664 0.26797 7.31664 0.133528 7.18311C-8.17692e-08 7.04867 0 6.83192 0 6.40207ZM0 14.6332C0 16.3581 -5.45128e-08 17.2196 0.53594 17.7556C1.07188 18.2915 1.93341 18.2915 3.65829 18.2915H14.6332C16.3581 18.2915 17.2196 18.2915 17.7555 17.7556C18.2915 17.2196 18.2915 16.3581 18.2915 14.6332V10.0604C18.2915 9.62959 18.2915 9.41375 18.1579 9.27931C18.0235 9.14578 17.8067 9.14578 17.3769 9.14578H0.914573C0.483809 9.14578 0.26797 9.14578 0.133528 9.27931C-8.17692e-08 9.41375 0 9.63051 0 10.0604V14.6332Z" fill="#FF3CAC"/>
<path d="M4.57288 0.914551V3.65827M13.7186 0.914551V3.65827" stroke="#FF3CAC" stroke-width="1.82915" stroke-linecap="round"/>
</svg>
