<svg width="40" height="45" viewBox="0 0 40 45" fill="none" xmlns="http://www.w3.org/2000/svg">
<path d="M33.0982 8.44629C30.9018 3.47168 25.8661 0 20 0C14.1339 0 9.09822 3.47168 6.90179 8.44629C5.4375 8.56934 4.28571 9.77344 4.28571 11.25V16.875C4.28571 18.3516 5.4375 19.5557 6.90179 19.6787C9.09822 24.6533 14.1339 28.125 20 28.125C25.8661 28.125 30.9018 24.6533 33.0982 19.6787C34.5625 19.5557 35.7143 18.3516 35.7143 16.875V11.25C35.7143 9.77344 34.5625 8.56934 33.0982 8.44629ZM30 12.6562V14.0625C30 18.7207 26.1607 22.5 21.4286 22.5H18.5714C13.8393 22.5 10 18.7207 10 14.0625V12.6562C10 10.3271 11.9196 8.4375 14.2857 8.4375H25.7143C28.0804 8.4375 30 10.3271 30 12.6562ZM16.9018 14.2998L16.3661 12.4365C16.2857 12.1465 16.0179 11.9531 15.7143 11.9531C15.4107 11.9531 15.1429 12.1465 15.0625 12.4365L14.5268 14.2998L12.6339 14.8271C12.3393 14.9062 12.1429 15.1699 12.1429 15.4688C12.1429 15.7676 12.3393 16.0312 12.6339 16.1104L14.5268 16.6377L15.0625 18.501C15.1429 18.791 15.4107 18.9844 15.7143 18.9844C16.0179 18.9844 16.2857 18.791 16.3661 18.501L16.9018 16.6377L18.7946 16.1104C19.0893 16.0312 19.2857 15.7676 19.2857 15.4688C19.2857 15.1699 19.0893 14.9062 18.7946 14.8271L16.9018 14.2998ZM10.0625 27.8174C4.16964 30.1113 0 35.7715 0 42.3896C0 43.8311 1.1875 45 2.65179 45H11.4286V39.375C11.4286 37.8193 12.7054 36.5625 14.2857 36.5625H25.7143C27.2946 36.5625 28.5714 37.8193 28.5714 39.375V45H37.3482C38.8125 45 40 43.8311 40 42.3896C40 35.7715 35.8304 30.1113 29.9375 27.8174C27.1339 29.7773 23.7054 30.9375 20 30.9375C16.2946 30.9375 12.8661 29.7773 10.0625 27.8174ZM15.7143 39.375C14.9286 39.375 14.2857 40.0078 14.2857 40.7812V45H17.1429V40.7812C17.1429 40.0078 16.5 39.375 15.7143 39.375ZM24.2857 42.1875C24.6646 42.1875 25.028 42.0393 25.2959 41.7756C25.5638 41.5119 25.7143 41.1542 25.7143 40.7812C25.7143 40.4083 25.5638 40.0506 25.2959 39.7869C25.028 39.5232 24.6646 39.375 24.2857 39.375C23.9068 39.375 23.5435 39.5232 23.2756 39.7869C23.0077 40.0506 22.8571 40.4083 22.8571 40.7812C22.8571 41.1542 23.0077 41.5119 23.2756 41.7756C23.5435 42.0393 23.9068 42.1875 24.2857 42.1875Z" fill="#FF3CAC"/>
</svg>
