<svg width="45" height="50" viewBox="0 0 45 50" fill="none" xmlns="http://www.w3.org/2000/svg">
<path d="M3.86719 49.7847C2.92969 50.1435 2.05125 50.0538 1.23188 49.5156C0.4125 48.9774 0.001875 48.2374 0 47.2955V35.3202C0 34.4232 0.223125 33.5711 0.669375 32.7637C1.11562 31.9564 1.73625 31.3061 2.53125 30.8127C3.94588 29.9206 5.80689 30.8393 6.03447 32.4962C6.32791 34.6326 6.6958 36.5607 7.13812 38.2804C7.34072 39.0681 7.58161 39.8876 7.86079 40.7388C9.05045 44.3662 7.43975 48.4392 3.86719 49.7847ZM16.3125 45.8827C15.6562 45.8827 15.0937 45.6808 14.625 45.2772C14.1562 44.8735 13.8047 44.3802 13.5703 43.7971C12.3047 40.7024 11.3672 37.8436 10.7578 35.2207C10.1484 32.5978 9.84375 29.5811 9.84375 26.1706C9.84375 21.1473 10.7812 16.3599 12.6562 11.8084C14.5312 7.25694 17.0859 3.56749 20.3203 0.740084C20.6016 0.470978 20.9419 0.279913 21.3412 0.166888C21.7406 0.0538634 22.1269 -0.00175199 22.5 4.20478e-05C22.8731 0.00183609 23.2603 0.0583483 23.6616 0.169579C24.0628 0.28081 24.4022 0.470978 24.6797 0.740084C27.9141 3.5657 30.4687 7.25515 32.3437 11.8084C34.2187 16.3617 35.1562 21.1491 35.1562 26.1706C35.1562 29.6242 34.8516 32.6516 34.2422 35.253C33.6328 37.8543 32.6953 40.7024 31.4297 43.7971C31.1953 44.3802 30.8437 44.8735 30.375 45.2772C29.9062 45.6808 29.3437 45.8827 28.6875 45.8827H16.3125ZM22.5 27.0452C24.0469 27.0452 25.3716 26.5187 26.4741 25.4656C27.5766 24.4125 28.1269 23.145 28.125 21.6631C28.1231 20.1812 27.5728 18.9146 26.4741 17.8633C25.3753 16.812 24.0506 16.2846 22.5 16.281C20.9494 16.2774 19.6256 16.8048 18.5287 17.8633C17.4319 18.9218 16.8806 20.1884 16.875 21.6631C16.8694 23.1378 17.4206 24.4053 18.5287 25.4656C19.6369 26.5259 20.9606 27.0524 22.5 27.0452ZM41.1328 49.7847C37.5608 48.4394 35.9513 44.3664 37.1415 40.7397C37.4209 39.8881 37.662 39.0684 37.8647 38.2804C38.307 36.5607 38.6745 34.6327 38.9671 32.4963C39.194 30.8398 41.0545 29.9208 42.4687 30.8127C43.2656 31.3061 43.8872 31.9564 44.3334 32.7637C44.7797 33.5711 45.0019 34.4232 45 35.3202V47.2955C45 48.2374 44.5903 48.9774 43.7709 49.5156C42.9515 50.0538 42.0722 50.1435 41.1328 49.7847Z" fill="#FF3CAC"/>
</svg>
